HIERARCHY
ROOT hip
{
  OFFSET 0 0 0
  CHANNELS 6 Xposition Yposition Zposition Zrotation Yrotation Xrotation
  JOINT abdomen
  {
    OFFSET 0 20.6881 -0.73152
    CHANNELS 3 Zrotation Xrotation Yrotation
    JOINT chest
    {
      OFFSET 0 11.7043 -0.48768
      CHANNELS 3 Zrotation Xrotation Yrotation
      JOINT neck
      {
        OFFSET 0 22.1894 -2.19456
        CHANNELS 3 Zrotation Xrotation Yrotation
        JOINT head
        {
          OFFSET -0.24384 7.07133 1.2192
          CHANNELS 3 Zrotation Xrotation Yrotation
          JOINT leftEye
          {
            OFFSET 4.14528 8.04674 8.04672
            CHANNELS 3 Zrotation Xrotation Yrotation
            End Site
            {
              OFFSET 1 0 0
            }
          }
          JOINT rightEye
          {
            OFFSET -3.6576 8.04674 8.04672
            CHANNELS 3 Zrotation Xrotation Yrotation
            End Site
            {
              OFFSET 1 0 0
            }
          }
        }
      }
      JOINT rCollar
      {
        OFFSET -2.68224 19.2634 -4.8768
        CHANNELS 3 Zrotation Xrotation Yrotation
        JOINT rShldr
        {
          OFFSET -8.77824 -1.95073 1.46304
          CHANNELS 3 Zrotation Xrotation Yrotation
          JOINT rForeArm
          {
            OFFSET -28.1742 -1.7115 0.48768
            CHANNELS 3 Zrotation Xrotation Yrotation
            JOINT rHand
            {
              OFFSET -22.5879 0.773209 7.07136
              CHANNELS 3 Zrotation Xrotation Yrotation
              JOINT rThumb1
              {
                OFFSET -1.2192 -0.487915 3.41376
                CHANNELS 3 Zrotation Xrotation Yrotation
                JOINT rThumb2
                {
                  OFFSET -3.37035 -0.52449 3.41376
                  CHANNELS 3 Zrotation Xrotation Yrotation
                  End Site
                  {
                    OFFSET -1.78271 -1.18214 1.43049
                  }
                }
              }
              JOINT rIndex1
              {
                OFFSET -7.75947 0.938293 5.60832
                CHANNELS 3 Zrotation Xrotation Yrotation
                JOINT rIndex2
                {
                  OFFSET -2.54057 -0.884171 1.56538
                  CHANNELS 3 Zrotation Xrotation Yrotation
                  End Site
                  {
                    OFFSET -1.62519 -0.234802 1.16502
                  }
                }
              }
              JOINT rMid1
              {
                OFFSET -8.24714 1.18213 3.41376
                CHANNELS 3 Zrotation Xrotation Yrotation
                JOINT rMid2
                {
                  OFFSET -3.10165 -0.590103 1.0647
                  CHANNELS 3 Zrotation Xrotation Yrotation
                  End Site
                  {
                    OFFSET -2.48547 -0.328903 0.83742
                  }
                }
              }
              JOINT rRing1
              {
                OFFSET -8.82822 0.546677 1.51678
                CHANNELS 3 Zrotation Xrotation Yrotation
                JOINT rRing2
                {
                  OFFSET -2.60934 -0.819778 -0.0198488
                  CHANNELS 3 Zrotation Xrotation Yrotation
                  End Site
                  {
                    OFFSET -2.33842 -0.294052 0.168128
                  }
                }
              }
              JOINT rPinky1
              {
                OFFSET -8.27202 -0.0477905 -0.4584
                CHANNELS 3 Zrotation Xrotation Yrotation
                JOINT rPinky2
                {
                  OFFSET -1.82734 -0.647385 -0.700984
                  CHANNELS 3 Zrotation Xrotation Yrotation
                  End Site
                  {
                    OFFSET -1.69225 -0.51767 -0.607171
                  }
                }
              }
            }
          }
        }
      }
      JOINT lCollar
      {
        OFFSET 2.68224 19.2634 -4.8768
        CHANNELS 3 Zrotation Xrotation Yrotation
        JOINT lShldr
        {
          OFFSET 8.77824 -1.95073 1.46304
          CHANNELS 3 Zrotation Xrotation Yrotation
          JOINT lForeArm
          {
            OFFSET 28.1742 -1.7115 0.48768
            CHANNELS 3 Zrotation Xrotation Yrotation
            JOINT lHand
            {
              OFFSET 22.5879 0.773209 7.07136
              CHANNELS 3 Zrotation Xrotation Yrotation
              JOINT lThumb1
              {
                OFFSET 1.2192 -0.487915 3.41376
                CHANNELS 3 Zrotation Xrotation Yrotation
                JOINT lThumb2
                {
                  OFFSET 3.37035 -0.52449 3.41376
                  CHANNELS 3 Zrotation Xrotation Yrotation
                  End Site
                  {
                    OFFSET 1.78271 -1.18214 1.43049
                  }
                }
              }
              JOINT lIndex1
              {
                OFFSET 7.75947 0.938293 5.60832
                CHANNELS 3 Zrotation Xrotation Yrotation
                JOINT lIndex2
                {
                  OFFSET 2.54057 -0.884171 1.56538
                  CHANNELS 3 Zrotation Xrotation Yrotation
                  End Site
                  {
                    OFFSET 1.62519 -0.234802 1.16502
                  }
                }
              }
              JOINT lMid1
              {
                OFFSET 8.24714 1.18213 3.41376
                CHANNELS 3 Zrotation Xrotation Yrotation
                JOINT lMid2
                {
                  OFFSET 3.10165 -0.590103 1.0647
                  CHANNELS 3 Zrotation Xrotation Yrotation
                  End Site
                  {
                    OFFSET 2.48547 -0.328903 0.83742
                  }
                }
              }
              JOINT lRing1
              {
                OFFSET 8.82822 0.546677 1.51678
                CHANNELS 3 Zrotation Xrotation Yrotation
                JOINT lRing2
                {
                  OFFSET 2.60934 -0.819778 -0.0198488
                  CHANNELS 3 Zrotation Xrotation Yrotation
                  End Site
                  {
                    OFFSET 2.33842 -0.294052 0.168128
                  }
                }
              }
              JOINT lPinky1
              {
                OFFSET 8.27202 -0.0477905 -0.4584
                CHANNELS 3 Zrotation Xrotation Yrotation
                JOINT lPinky2
                {
                  OFFSET 1.82734 -0.647385 -0.700984
                  CHANNELS 3 Zrotation Xrotation Yrotation
                  End Site
                  {
                    OFFSET 1.69225 -0.51767 -0.607171
                  }
                }
              }
            }
          }
        }
      }
    }
  }
  JOINT rButtock
  {
    OFFSET -8.77824 4.35084 1.2192
    CHANNELS 3 Zrotation Xrotation Yrotation
    JOINT rThigh
    {
      OFFSET 0 -1.70687 -2.19456
      CHANNELS 3 Zrotation Xrotation Yrotation
      JOINT rShin
      {
        OFFSET 0 -36.8199 0.73152
        CHANNELS 3 Zrotation Xrotation Yrotation
        JOINT rFoot
        {
          OFFSET 0.73152 -45.1104 -5.12064
          CHANNELS 3 Zrotation Xrotation Yrotation
          End Site
          {
            OFFSET -1.1221 -3.69964 12.103
          }
        }
      }
    }
  }
  JOINT lButtock
  {
    OFFSET 8.77824 4.35084 1.2192
    CHANNELS 3 Zrotation Xrotation Yrotation
    JOINT lThigh
    {
      OFFSET 0 -1.70687 -2.19456
      CHANNELS 3 Zrotation Xrotation Yrotation
      JOINT lShin
      {
        OFFSET 0 -36.8199 0.73152
        CHANNELS 3 Zrotation Xrotation Yrotation
        JOINT lFoot
        {
          OFFSET -0.73152 -45.1104 -5.12064
          CHANNELS 3 Zrotation Xrotation Yrotation
          End Site
          {
            OFFSET 1.1221 -3.69964 12.103
          }
        }
      }
    }
  }
}
MOTION
Frames:	5
Frame Time:	0.00833333
-143.081 77.998 87.3642 0.0 0.0 0.0 -3.1312 0.00208551 -0.084503 -0.863229 0.0181966 -0.149331 5.5004e-14 0.0 9.93924e-17 1.64749e-13 3.18055e-15 1.47535e-16 -0.0 0.0 0.0 -0.0 0.0 0.0 2.71336e-14 -1.70831e-17 1.49089e-16 5.76231e-13 -5.59082e-16 2.38542e-15 9.86613e-12 -2.98435e-12 -6.67917e-14 1.13254e-10 2.88745e-12 1.11319e-13 2.67074e-10 -2.09555e-13 8.90555e-14 4.61223e-10 -3.62583e-13 1.37559e-13 2.6708e-10 -2.07531e-13 7.95139e-14 7.73091 5.47488 0.417314 2.67076e-10 -2.0932e-13 8.90555e-14 2.90554 0.965183 0.102902 2.6708e-10 -2.09221e-13 8.50798e-14 10.2786 0.731801 0.0259123 2.67071e-10 -2.09121e-13 8.90555e-14 2.22167 -0.733487 -0.20892 2.7037e-14 -2.05773e-17 -1.49089e-16 5.72285e-13 -9.62863e-16 7.95139e-16 9.92244e-12 2.93227e-12 -1.11319e-13 1.13163e-10 -3.04705e-12 1.7175e-13 2.67008e-10 -2.46769e-13 8.5875e-14 4.6111e-10 -4.23014e-13 1.63003e-13 2.67004e-10 -2.46493e-13 1.01778e-13 -7.73091 5.47488 -0.417314 2.67008e-10 -2.47089e-13 9.22361e-14 -2.90554 0.965183 -0.102902 2.67002e-10 -2.46891e-13 9.70069e-14 -10.2786 0.731801 -0.0259123 2.6701e-10 -2.4371e-13 9.54166e-14 -2.22167 -0.733487 0.20892 -2.03217e-16 0.0 -3.88251e-19 -1.91876 -1.93503 0.0146241 -0.00850087 -2.07867 -0.0697632 -0.458693 4.00011 0.132463 2.03217e-16 0.0 3.88251e-19 -2.83819 -9.32626 0.322353 -0.00902512 11.3079 -0.235082 0.527316 -1.9951 -0.0183575
-139.223 73.7082 82.0962 -111.33 86.5601 -100.44 -2.50385 6.40036 3.2908 0.414056 -0.204017 0.900492 -2.52708 1.43744 -1.60394 5.70808 -14.5654 0.419982 -0.0 0.0 0.0 -0.0 0.0 0.0 -4.72843e-14 -3.65798e-13 6.85924e-15 13.5805 4.02433 11.1908 -16.7249 -14.1546 15.1185 0.0983643 6.99755 0.957603 1.03147e-10 4.3077e-11 -6.08734e-10 1.65431e-10 8.39906e-11 -1.04785e-09 1.03151e-10 4.30786e-11 -6.08741e-10 7.73091 5.47488 0.417314 1.03148e-10 4.3078e-11 -6.08735e-10 2.90554 0.965183 0.102902 1.03153e-10 4.30783e-11 -6.08738e-10 10.2786 0.731801 0.0259123 1.03143e-10 4.30787e-11 -6.08733e-10 2.22167 -0.733487 -0.20892 -4.74024e-14 -3.65807e-13 6.57348e-15 -24.0952 19.9494 13.3203 7.58197 -4.54515 -10.4112 -0.0441336 -4.70783 0.653902 4.97428e-10 1.76382e-10 3.91046e-10 8.53196e-10 3.01701e-10 6.82719e-10 4.97425e-10 1.76382e-10 3.91059e-10 -7.73091 5.47488 -0.417314 4.97428e-10 1.76382e-10 3.91051e-10 -2.90554 0.965183 -0.102902 4.97424e-10 1.76382e-10 3.91054e-10 -10.2786 0.731801 -0.0259123 4.97432e-10 1.76384e-10 3.91051e-10 -2.22167 -0.733487 0.20892 -2.03217e-16 0.0 -3.88251e-19 -2.18092 -0.984505 -2.05641 0.113566 8.16962 0.214764 -0.36016 -0.678333 2.02362 2.03217e-16 0.0 3.88251e-19 -1.03318 -25.4132 4.18794 0.175183 35.2739 -0.600473 0.830629 0.730063 1.99521
-135.365 74.2409 81.0267 -109.366 86.84 -98.4351 -2.70282 13.0726 6.94475 1.79423 -0.462637 1.99362 -5.10051 2.91857 -3.25998 11.959 -29.9195 1.02536 -0.0 0.0 0.0 -0.0 0.0 0.0 -1.3169e-13 -7.76454e-13 1.64525e-14 26.2627 7.83713 23.1647 -26.1156 -26.031 34.1543 -0.0594327 14.3105 2.00802 -9.37737e-11 1.00614e-10 -1.3122e-09 -1.89435e-10 1.9441e-10 -2.25833e-09 -9.37713e-11 1.00615e-10 -1.3122e-09 7.73091 5.47488 0.417314 -9.37734e-11 1.00616e-10 -1.3122e-09 2.90554 0.965183 0.102902 -9.37671e-11 1.00616e-10 -1.3122e-09 10.2786 0.731801 0.0259123 -9.37772e-11 1.00617e-10 -1.3122e-09 2.22167 -0.733487 -0.20892 -1.31832e-13 -7.76469e-13 1.61792e-14 -61.5709 37.1482 33.0783 13.782 -8.80128 -21.5695 0.0277694 -9.60672 1.34958 7.72707e-10 3.74896e-10 8.16098e-10 1.32228e-09 6.41176e-10 1.42524e-09 7.72702e-10 3.74896e-10 8.16106e-10 -7.73091 5.47488 -0.417314 7.72705e-10 3.74896e-10 8.161e-10 -2.90554 0.965183 -0.102902 7.72703e-10 3.74896e-10 8.16102e-10 -10.2786 0.731801 -0.0259123 7.72712e-10 3.74897e-10 8.16096e-10 -2.22167 -0.733487 0.20892 -2.03217e-16 0.0 -3.88251e-19 -2.39108 -0.244992 -4.30452 0.127187 19.2738 0.544141 0.0975052 -5.86714 4.03731 2.03217e-16 0.0 3.88251e-19 4.05014 -42.1177 10.1569 1.08258 60.9119 -1.58136 0.94909 3.64144 4.17906
-131.437 74.8735 79.9151 -112.005 87.0378 -101.133 -3.60652 18.9263 10.5565 2.99304 -0.647631 3.00031 -7.33955 4.29879 -4.82392 17.9724 -43.6849 1.68642 -0.0 0.0 0.0 -0.0 0.0 0.0 -1.9612e-13 -1.09736e-12 2.02795e-14 36.2644 10.239 34.1041 -27.757 -29.9626 53.2308 -0.448604 20.9683 3.05381 -2.24709e-10 1.2965e-10 -1.82638e-09 -4.26153e-10 2.52697e-10 -3.14381e-09 -2.24707e-10 1.29651e-10 -1.82638e-09 7.73091 5.47488 0.417314 -2.24709e-10 1.29653e-10 -1.82638e-09 2.90554 0.965183 0.102902 -2.24701e-10 1.29653e-10 -1.82638e-09 10.2786 0.731801 0.0259123 -2.24712e-10 1.29654e-10 -1.82638e-09 2.22167 -0.733487 -0.20892 -1.96281e-13 -1.09738e-12 2.00186e-14 -106.559 44.1167 58.0368 17.9769 -11.8345 -31.8888 0.198447 -14.116 2.01599 9.5827e-10 5.29639e-10 1.17297e-09 1.63737e-09 9.05949e-10 2.04783e-09 9.58266e-10 5.29638e-10 1.17297e-09 -7.73091 5.47488 -0.417314 9.58268e-10 5.29639e-10 1.17297e-09 -2.90554 0.965183 -0.102902 9.58268e-10 5.29639e-10 1.17297e-09 -10.2786 0.731801 -0.0259123 9.58277e-10 5.29638e-10 1.17296e-09 -2.22167 -0.733487 0.20892 -2.03217e-16 0.0 -3.88251e-19 -2.49947 0.909288 -6.19835 0.0193121 28.6635 0.88574 0.772253 -9.98448 5.89576 2.03217e-16 0.0 3.88251e-19 13.7025 -56.2154 19.5238 8.01384 83.1359 -8.47826 0.861266 6.14748 6.05679
-127.533 75.496 78.7478 -119.357 87.3913 -108.449 -4.64892 22.9685 13.5975 3.71734 -0.649518 3.7907 -8.89241 5.43704 -6.14827 22.5376 -53.4953 1.96964 -0.0 0.0 0.0 -0.0 0.0 0.0 -2.1061e-13 -1.19389e-12 9.69075e-15 42.7474 10.9274 41.9156 -27.4907 -28.1421 64.2904 -0.9085 26.0096 3.93218 -1.90679e-10 8.74366e-11 -1.86734e-09 -3.67502e-10 1.80652e-10 -3.21676e-09 -1.90679e-10 8.7437e-11 -1.86734e-09 7.73091 5.47488 0.417314 -1.9068e-10 8.74394e-11 -1.86734e-09 2.90554 0.965183 0.102902 -1.90672e-10 8.74401e-11 -1.86734e-09 10.2786 0.731801 0.0259123 -1.90683e-10 8.74414e-11 -1.86734e-09 2.22167 -0.733487 -0.20892 -2.10778e-13 -1.19391e-12 9.44227e-15 -139.86 42.6021 75.3082 20.3412 -13.4469 -39.5145 0.398328 -17.6575 2.56412 9.19549e-10 5.74952e-10 1.35938e-09 1.5675e-09 9.83968e-10 2.37062e-09 9.19545e-10 5.74951e-10 1.35938e-09 -7.73091 5.47488 -0.417314 9.19547e-10 5.74952e-10 1.35938e-09 -2.90554 0.965183 -0.102902 9.19547e-10 5.74952e-10 1.35938e-09 -10.2786 0.731801 -0.0259123 9.19556e-10 5.74951e-10 1.35937e-09 -2.22167 -0.733487 0.20892 -2.03217e-16 0.0 -3.88251e-19 -2.42764 3.10241 -7.21307 -0.115006 33.7701 1.13918 1.24187 -11.4817 7.23518 2.03217e-16 0.0 3.88251e-19 26.0296 -65.0104 30.9624 170.351 82.7994 -170.732 0.698487 7.67823 7.12644
